<svg width="150" height="114" viewBox="0 0 150 114" fill="none" xmlns="http://www.w3.org/2000/svg">
<g clip-path="url(#clip0)">
<path d="M98.0034 9.46536H5.95428C3.16013 9.46536 0.89502 11.7305 0.89502 14.5246V37.3522C0.89502 40.1462 3.16013 42.4114 5.95428 42.4114H98.0034C100.798 42.4114 103.063 40.1462 103.063 37.3522V14.5246C103.063 11.7305 100.798 9.46536 98.0034 9.46536Z" fill="white"/>
<path d="M103.063 30.0859V40.4381C103.063 41.5286 100.866 42.4114 98.1715 42.4114H5.7926C3.0902 42.4114 0.901123 41.5286 0.901123 40.4381V34.4461C7.12882 36.0959 14.2194 37.2084 21.4917 37.8995C30.28 38.7343 39.3379 38.978 48.3579 39.014C59.1435 39.0579 70.1089 38.7963 80.2614 37.3322C89.565 35.994 98.1915 33.5273 103.063 30.0859Z" fill="#E8F0F9"/>
<path d="M97.9074 43.2483H5.85819C4.30534 43.2467 2.8165 42.6294 1.71828 41.5314C0.620057 40.4337 0.0021148 38.9451 0 37.3921V14.5626C0.0021148 13.0097 0.620057 11.5211 1.71828 10.4233C2.8165 9.32541 4.30534 8.70797 5.85819 8.70639H97.9074C99.4606 8.70797 100.95 9.32568 102.048 10.424C103.146 11.5222 103.764 13.0114 103.766 14.5646V37.3941C103.763 38.9467 103.145 40.4347 102.047 41.5322C100.948 42.6296 99.46 43.2467 97.9074 43.2483ZM5.85819 10.3043C4.72895 10.3053 3.64624 10.7542 2.84756 11.5525C2.04889 12.3508 1.59946 13.4333 1.59787 14.5626V37.3921C1.59893 38.5216 2.04813 39.6048 2.84686 40.4035C3.6456 41.2023 4.72861 41.6515 5.85819 41.6525H97.9074C99.0369 41.6515 100.12 41.2023 100.919 40.4035C101.718 39.6048 102.167 38.5216 102.168 37.3921V14.5626C102.167 13.433 101.718 12.35 100.919 11.5512C100.12 10.7525 99.0369 10.3033 97.9074 10.3023L5.85819 10.3043Z" fill="#314E5D"/>
<path d="M144.142 60.5972H38.9242C36.13 60.5972 33.865 62.8624 33.865 65.6565V88.484C33.865 91.2781 36.13 93.5433 38.9242 93.5433H144.142C146.936 93.5433 149.201 91.2781 149.201 88.484V65.6565C149.201 62.8624 146.936 60.5972 144.142 60.5972Z" fill="white"/>
<path d="M149.201 81.2177V91.5699C149.201 92.6604 146.729 93.5433 143.679 93.5433H39.3876C36.3377 93.5433 33.865 92.6604 33.865 91.5699V85.5779C40.8956 87.2277 48.9009 88.3402 57.11 89.0313C67.0208 89.8662 77.2551 90.1099 87.4396 90.1458C99.6113 90.1897 111.995 89.9281 123.456 88.464C133.964 87.1258 143.703 84.6591 149.201 81.2177Z" fill="#E8F0F9"/>
<path d="M75.5628 60.6791C64.6973 61.3302 49.5975 60.7011 40.228 63.0959C35.7799 64.2304 34.6834 66.4314 33.9663 68.251L33.9803 63.1558C33.9803 62.5027 34.0422 61.7916 35.2226 61.2923C36.6827 60.6771 39.2453 60.6292 41.5023 60.6312C52.5835 60.6352 64.7013 60.1958 75.5628 60.6791Z" fill="#4ED9FF"/>
<path d="M144.034 94.3801H38.8142C37.2613 94.3785 35.7725 93.7612 34.6744 92.6632C33.576 91.5655 32.9583 90.0769 32.9561 88.524V65.6944C32.9577 64.1413 33.5754 62.6521 34.6736 61.5537C35.7719 60.4556 37.2611 59.8378 38.8142 59.8362H144.034C145.587 59.8378 147.076 60.4556 148.175 61.5537C149.273 62.6521 149.891 64.1413 149.892 65.6944V88.524C149.89 90.0769 149.272 91.5655 148.174 92.6632C147.076 93.7612 145.587 94.3785 144.034 94.3801ZM38.8142 61.4361C37.685 61.4371 36.6024 61.8861 35.8037 62.6844C35.0049 63.4825 34.5555 64.5651 34.5539 65.6944V88.524C34.5549 89.6534 35.0041 90.7366 35.8029 91.5353C36.6016 92.3341 37.6848 92.7833 38.8142 92.7843H144.034C145.163 92.7833 146.247 92.3341 147.045 91.5353C147.844 90.7366 148.293 89.6534 148.294 88.524V65.6944C148.293 64.5647 147.844 63.4817 147.045 62.683C146.247 61.8843 145.163 61.4351 144.034 61.4341L38.8142 61.4361Z" fill="#314E5D"/>
<path d="M129.517 1.54993H24.3131C21.519 1.54993 19.2539 3.81503 19.2539 6.60918V100.522C19.2539 103.316 21.519 105.581 24.3131 105.581H129.517C132.311 105.581 134.576 103.316 134.576 100.522V6.60918C134.576 3.81503 132.311 1.54993 129.517 1.54993Z" fill="#1DCDFF"/>
<path d="M134.577 66.6631V99.3435C134.577 102.785 132.104 105.573 129.054 105.573H24.7673C21.7174 105.573 19.2446 102.777 19.2446 99.3435V80.4447C26.2753 85.6538 34.2787 89.1691 42.4857 91.3522C52.3965 93.9907 62.6289 94.7617 72.8113 94.8735C84.9831 95.0113 97.3625 94.1844 108.823 89.5606C119.341 85.3222 129.08 77.5286 134.577 66.6631Z" fill="#1AB5E1"/>
<path d="M60.9492 1.81159C50.0857 3.87084 34.9958 1.88349 25.6183 9.44141C21.1722 13.0246 20.0757 19.9734 19.3586 25.7197L19.3746 9.63515C19.3746 7.5759 19.4365 5.3249 20.617 3.75299C22.077 1.81159 24.6396 1.66179 26.8946 1.66179C37.9718 1.67377 50.0877 0.311585 60.9492 1.81159Z" fill="#4ED9FF"/>
<path d="M129.41 106.504H24.2042C22.6509 106.502 21.1619 105.885 20.0635 104.786C18.9652 103.688 18.3475 102.199 18.3459 100.646V6.73302C18.3475 5.17981 18.9652 3.6907 20.0635 2.59241C21.1619 1.49413 22.6509 0.876418 24.2042 0.874832H129.41C130.963 0.876418 132.452 1.49413 133.55 2.59241C134.649 3.6907 135.267 5.17981 135.268 6.73302V100.648C135.266 102.201 134.648 103.689 133.55 104.787C132.451 105.885 130.963 106.502 129.41 106.504ZM24.2042 2.4727C23.0745 2.47376 21.9916 2.92296 21.1928 3.7217C20.3941 4.52043 19.9449 5.60345 19.9438 6.73302V100.648C19.9449 101.777 20.3941 102.86 21.1928 103.659C21.9916 104.458 23.0745 104.907 24.2042 104.908H129.41C130.539 104.907 131.622 104.458 132.421 103.659C133.22 102.86 133.669 101.777 133.67 100.648V6.73302C133.669 5.60345 133.22 4.52043 132.421 3.7217C131.622 2.92296 130.539 2.47376 129.41 2.4727H24.2042Z" fill="#314E5D"/>
<path d="M121.432 8.257H32.8665C31.117 8.257 29.6987 9.67525 29.6987 11.4248V94.6638C29.6987 96.4133 31.117 97.8316 32.8665 97.8316H121.432C123.182 97.8316 124.6 96.4133 124.6 94.6638V11.4248C124.6 9.67525 123.182 8.257 121.432 8.257Z" fill="white"/>
<path d="M124.448 10.7976V28.1904H29.5403V10.7976C29.5403 9.46335 30.8985 8.3808 32.5742 8.3808H121.414C123.09 8.3808 124.448 9.46335 124.448 10.7976Z" fill="#DCEAEF"/>
<path d="M121.318 99.1278H32.7565C31.7047 99.1268 30.6965 98.7086 29.9526 97.9648C29.209 97.2212 28.7908 96.2129 28.7898 95.1611V11.273C28.7914 10.2216 29.2098 9.21378 29.9534 8.47053C30.697 7.7273 31.7051 7.30932 32.7565 7.30826H121.318C122.37 7.30932 123.378 7.72756 124.122 8.47125C124.866 9.21492 125.284 10.2233 125.285 11.275V95.1631C125.284 96.2145 124.865 97.2224 124.121 97.9656C123.378 98.7088 122.37 99.1268 121.318 99.1278ZM32.7565 8.90613C32.1285 8.90717 31.5265 9.15709 31.0825 9.6011C30.6385 10.0451 30.3887 10.647 30.3877 11.275V95.1631C30.3893 95.7907 30.6393 96.3921 31.0833 96.8357C31.5271 97.2793 32.1289 97.529 32.7565 97.53H121.318C121.946 97.529 122.548 97.2789 122.992 96.8349C123.436 96.3909 123.686 95.7891 123.687 95.1611V11.273C123.686 10.6454 123.435 10.044 122.992 9.6004C122.548 9.15681 121.946 8.90717 121.318 8.90613H32.7565Z" fill="#314E5D"/>
<path d="M80.613 19.9674H40.2488V23.4547H80.613V19.9674Z" fill="white"/>
<path d="M38.9897 36.773H58.7374V35.9441H38.9897V36.773Z" fill="#CED5D8"/>
<path d="M38.9897 38.5985H81.9705V37.7697H38.9897V38.5985Z" fill="#CED5D8"/>
<path d="M38.9897 40.4241H58.7374V39.5952H38.9897V40.4241Z" fill="#CED5D8"/>
<path d="M38.9897 42.2497H81.9705V41.4208H38.9897V42.2497Z" fill="#CED5D8"/>
<path d="M38.9897 44.0752H58.7374V43.2464H38.9897V44.0752Z" fill="#CED5D8"/>
<path d="M38.9897 45.8988H81.9705V45.0699H38.9897V45.8988Z" fill="#CED5D8"/>
<path d="M38.9897 53.269H58.7374V52.4401H38.9897V53.269Z" fill="#CED5D8"/>
<path d="M38.9897 55.0945H81.9705V54.2656H38.9897V55.0945Z" fill="#CED5D8"/>
<path d="M38.9897 56.9201H58.7374V56.0912H38.9897V56.9201Z" fill="#CED5D8"/>
<path d="M38.9897 58.7457H81.9705V57.9168H38.9897V58.7457Z" fill="#CED5D8"/>
<path d="M38.9897 60.5712H58.7374V59.7423H38.9897V60.5712Z" fill="#CED5D8"/>
<path d="M38.9897 62.3948H81.9705V61.5659H38.9897V62.3948Z" fill="#CED5D8"/>
<path d="M38.9897 69.765H58.7374V68.9361H38.9897V69.765Z" fill="#CED5D8"/>
<path d="M38.9897 71.5905H81.9705V70.7617H38.9897V71.5905Z" fill="#CED5D8"/>
<path d="M38.9897 73.4161H58.7374V72.5872H38.9897V73.4161Z" fill="#CED5D8"/>
<path d="M38.9897 75.2417H81.9705V74.4128H38.9897V75.2417Z" fill="#CED5D8"/>
<path d="M38.9897 77.0672H58.7374V76.2383H38.9897V77.0672Z" fill="#CED5D8"/>
<path d="M38.9897 78.8908H81.9705V78.0619H38.9897V78.8908Z" fill="#CED5D8"/>
<path d="M105.651 13.8415H120.475V12.0979H105.651V13.8415Z" fill="#EEA248"/>
<path d="M88.7812 13.8415H103.606V12.0979H88.7812V13.8415Z" fill="#EEA248"/>
<path d="M34.2562 14.6505C35.185 14.6505 35.938 13.8975 35.938 12.9687C35.938 12.0399 35.185 11.2869 34.2562 11.2869C33.3275 11.2869 32.5745 12.0399 32.5745 12.9687C32.5745 13.8975 33.3275 14.6505 34.2562 14.6505Z" fill="#EEA248"/>
<path d="M93.7121 76.0225L88.3496 81.1077L99.2305 92.5817L104.593 87.4965L93.7121 76.0225Z" fill="#314E5D"/>
<g opacity="0.5">
<path opacity="0.5" d="M89.0596 76.204C96.0483 69.5768 96.3411 58.5391 89.7139 51.5505C83.0868 44.562 72.0489 44.2692 65.0604 50.8963C58.072 57.5235 57.7792 68.5614 64.4063 75.5498C71.0335 82.5383 82.0711 82.8311 89.0596 76.204Z" fill="#8BDDEB"/>
<path opacity="0.5" d="M67.8697 73.6278C66.106 71.7691 64.774 69.5444 63.9683 67.1121C63.1626 64.6797 62.9029 62.0998 63.2081 59.5558C63.5133 57.0118 64.3755 54.5662 65.7337 52.3935C67.0917 50.2208 68.9123 48.3743 71.0654 46.9853C68.7615 47.8296 66.6617 49.1506 64.9032 50.862C63.1448 52.5733 61.7672 54.6363 60.8608 56.9165C59.9542 59.1966 59.539 61.6424 59.6425 64.0939C59.7457 66.5454 60.3653 68.9474 61.4606 71.1433C62.5558 73.339 64.1021 75.2788 65.9984 76.8361C67.8947 78.3932 70.0981 79.5329 72.465 80.1803C74.8318 80.8276 77.3085 80.9682 79.7333 80.5927C82.1583 80.2174 84.4766 79.3346 86.5368 78.002C83.3381 79.176 79.8657 79.3873 76.5483 78.61C73.2308 77.8326 70.2138 76.1007 67.8697 73.6278Z" fill="#62D6F8"/>
</g>
<path d="M96.0912 44.9321C94.191 42.9234 91.9911 41.2208 89.5699 39.8848C89.528 39.8589 89.486 39.8369 89.4401 39.8149C83.843 36.7668 77.3442 35.8085 71.1054 37.1115C64.8667 38.4146 59.2945 41.8937 55.3853 46.9274C51.476 51.9609 49.4842 58.2208 49.766 64.5879C50.0479 70.9552 52.5849 77.0145 56.9235 81.6831C56.9854 81.753 57.0493 81.8209 57.1232 81.8828C59.1072 83.98 61.4173 85.7425 63.9641 87.1019L64.036 87.1398C69.6645 90.1169 76.1674 90.9973 82.3847 89.6241C88.602 88.2507 94.129 84.7135 97.9801 79.6428C101.831 74.5722 103.755 68.2983 103.409 61.9406C103.063 55.5829 100.47 49.5549 96.0912 44.9321ZM89.522 51.5513C91.8956 54.0539 93.4735 57.2039 94.0567 60.6034C94.6398 64.0029 94.2018 67.4988 92.7978 70.6494C91.3941 73.7998 89.0876 76.4633 86.1701 78.3028C83.2526 80.1426 79.8549 81.0755 76.4071 80.9842C72.9593 80.8929 69.616 79.7812 66.7999 77.7897C63.9839 75.7981 61.8216 73.0164 60.5866 69.7959C59.3514 66.5756 59.0992 63.0613 59.8614 59.6976C60.6237 56.3337 62.3664 53.2716 64.8689 50.8981C66.5307 49.3222 68.4865 48.0891 70.6248 47.269C72.763 46.4491 75.0419 46.0582 77.3313 46.1191C79.6206 46.18 81.8754 46.6911 83.9672 47.6235C86.0588 48.5561 87.9465 49.8913 89.522 51.5533V51.5513Z" fill="#E7E7E7"/>
<path d="M97.9755 79.0546C93.4154 83.3794 87.4827 85.968 81.2109 86.3696C74.9388 86.7711 68.7245 84.9603 63.6501 81.2525C58.5757 77.5446 54.9623 72.1744 53.4391 66.0769C51.9159 59.9794 52.5797 53.5408 55.3144 47.8822C53.1036 50.8913 51.5446 54.3286 50.7369 57.9741C49.9292 61.6198 49.8906 65.3938 50.6235 69.0551C51.3565 72.7166 52.8447 76.185 54.9934 79.2387C57.1422 82.2927 59.9041 84.865 63.1026 86.7915C66.3014 88.7179 69.8666 89.9563 73.5709 90.4272C77.2751 90.8984 81.0369 90.5918 84.6159 89.5274C88.195 88.4628 91.5127 86.6638 94.3575 84.2451C97.2021 81.8261 99.5113 78.8407 101.137 75.4794C100.191 76.762 99.1328 77.9585 97.9755 79.0546Z" fill="#CED0D0"/>
<path d="M76.8292 91.2084C72.2309 91.2106 67.7058 90.0583 63.6688 87.8568L63.5689 87.8029C57.7059 84.5772 53.2059 79.3416 50.8978 73.0606C50.8459 72.9248 50.7959 72.7829 50.75 72.6371C48.9268 67.3911 48.7249 61.7179 50.171 56.3556C51.617 50.9934 54.6436 46.1906 58.8572 42.5724C63.0708 38.9545 68.2758 36.6887 73.7951 36.0699C79.3143 35.4513 84.8919 36.5085 89.8019 39.1039C89.8558 39.1298 89.9098 39.1598 89.9617 39.1897C95.1304 41.9684 99.2813 46.319 101.814 51.6126C104.347 56.9061 105.13 62.868 104.051 68.6361C102.972 74.4042 100.086 79.6796 95.8105 83.6992C91.5352 87.719 86.0923 90.2746 80.2686 90.9967C79.1275 91.1373 77.9789 91.208 76.8292 91.2084ZM76.8752 37.48C72.7155 37.4814 68.6166 38.4781 64.9207 40.3867C61.2248 42.2954 58.0393 45.0607 55.6299 48.4516C53.2207 51.8425 51.6576 55.7604 51.0714 59.8786C50.4852 63.9967 50.8926 68.1953 52.26 72.1238V72.1478C52.2979 72.2676 52.3419 72.3875 52.3858 72.5053C54.5607 78.43 58.8053 83.3682 64.3359 86.4088L64.4058 86.4467C69.8585 89.4293 76.1981 90.3647 82.2799 89.0838C88.3616 87.8027 93.7852 84.3899 97.5717 79.461C101.358 74.5324 103.258 68.4124 102.928 62.2059C102.599 55.9993 100.061 50.1152 95.7739 45.6152C93.8641 43.5957 91.6421 41.8961 89.1927 40.5819L89.1628 40.5639L89.0988 40.53L89.0689 40.514C85.3131 38.5228 81.1263 37.4832 76.8752 37.486V37.48ZM76.8752 81.7829C76.7094 81.7829 76.5456 81.7829 76.3798 81.7829C71.5706 81.7176 66.9825 79.7529 63.6164 76.3174C60.2503 72.882 58.3796 68.2546 58.4122 63.445C58.4449 58.6356 60.3784 54.0341 63.791 50.6447C67.2035 47.2554 71.8179 45.3531 76.6275 45.3531C81.4371 45.3531 86.0515 47.2554 89.4642 50.6447C92.8766 54.0341 94.81 58.6356 94.8428 63.445C94.8755 68.2546 93.0046 72.882 89.6385 76.3174C86.2726 79.7529 81.6843 81.7176 76.8752 81.7829ZM76.8532 46.9055C72.5945 46.8967 68.4965 48.5323 65.4144 51.4714C62.6216 54.12 60.8336 57.6553 60.355 61.4746C59.8764 65.2937 60.7367 69.161 62.7895 72.4168C64.8426 75.6729 67.9608 78.1164 71.6134 79.331C75.2657 80.5458 79.2264 80.4563 82.8204 79.0784C86.4144 77.7002 89.4194 75.1186 91.3233 71.7735C93.2273 68.4282 93.9126 64.5264 93.2623 60.7324C92.612 56.9387 90.6664 53.4877 87.757 50.9674C84.8475 48.4474 81.1544 47.0139 77.3066 46.9114C77.1588 46.9114 77.0096 46.9114 76.8592 46.9114L76.8532 46.9055Z" fill="#314E5D"/>
<path d="M97.9981 85.4455L97.9965 85.4469C95.7201 87.6056 95.6248 91.201 97.7836 93.4774L113.934 110.508C116.092 112.784 119.688 112.88 121.964 110.721L121.966 110.72C124.242 108.561 124.337 104.966 122.179 102.689L106.029 85.6586C103.87 83.3822 100.274 83.2868 97.9981 85.4455Z" fill="#426372"/>
<path d="M117.821 113.075H117.643C116.792 113.056 115.954 112.869 115.177 112.523C114.399 112.178 113.697 111.682 113.113 111.064L96.9644 94.0306C96.3788 93.4133 95.9206 92.6864 95.616 91.8919C95.3112 91.0974 95.166 90.2507 95.1886 89.4C95.2111 88.5494 95.4009 87.7115 95.7472 86.9341C96.0936 86.157 96.5897 85.4555 97.2071 84.8699C97.8246 84.2843 98.5513 83.8261 99.3458 83.5215C100.14 83.2167 100.987 83.0715 101.838 83.094C102.688 83.1164 103.526 83.3064 104.304 83.6527C105.081 83.999 105.782 84.4952 106.368 85.1125L122.518 102.14C123.697 103.389 124.333 105.054 124.287 106.77C124.241 108.487 123.518 110.115 122.275 111.3C121.074 112.444 119.479 113.08 117.821 113.075ZM101.664 84.6931C100.711 84.6953 99.779 84.9763 98.9835 85.5016C98.188 86.0269 97.5636 86.7735 97.1871 87.6494C96.8108 88.5252 96.6987 89.4919 96.8649 90.4307C97.0313 91.3694 97.4685 92.2388 98.1229 92.9321L114.271 109.961C115.165 110.897 116.392 111.442 117.685 111.476C118.978 111.511 120.232 111.032 121.174 110.145C122.11 109.252 122.654 108.025 122.689 106.732C122.723 105.438 122.245 104.184 121.358 103.242L105.209 86.2131C104.753 85.7317 104.203 85.3484 103.594 85.0872C102.984 84.8257 102.327 84.6917 101.664 84.6931Z" fill="#314E5D"/>
<g opacity="0.5">
<path opacity="0.5" d="M103.442 87.5752C105.439 89.253 106.983 91.3402 108.849 93.1458C109.404 93.6831 110.247 92.8362 109.696 92.299C107.83 90.5013 106.286 88.4061 104.289 86.7283C103.702 86.235 102.851 87.0779 103.442 87.5752Z" fill="white"/>
<path opacity="0.5" d="M99.995 87.1977C100.315 86.9996 100.675 86.8741 101.048 86.8306C101.422 86.7873 101.801 86.8266 102.158 86.9461C102.899 87.1618 103.217 86.0053 102.478 85.7896C101.966 85.6282 101.426 85.5779 100.894 85.642C100.361 85.7061 99.8484 85.8831 99.3898 86.1611C98.7287 86.5606 99.3299 87.5932 99.989 87.1957L99.995 87.1977Z" fill="white"/>
</g>
<path d="M83.4989 41.6505C86.6847 42.6192 89.6807 44.1691 92.1693 46.3802C95.3291 49.1764 97.4783 52.8475 98.7925 56.8342C99.0322 57.5632 100.191 57.2517 99.949 56.5146C98.5728 52.3402 96.3278 48.4674 93.0182 45.5293C90.3657 43.1764 87.198 41.5346 83.8205 40.492C83.0815 40.2663 82.7659 41.4228 83.5009 41.6485L83.4989 41.6505Z" fill="white"/>
<path d="M71.8602 40.538C73.9435 40.2623 76.1026 40.3642 78.1838 40.5759C78.9508 40.6538 78.9448 39.4554 78.1838 39.3775C76.1026 39.1658 73.9435 39.0639 71.8602 39.3395C71.1073 39.4394 71.0973 40.6398 71.8602 40.538Z" fill="white"/>
</g>
<defs>
<clipPath id="clip0">
<rect width="150" height="112.25" fill="white" transform="translate(0 0.874832)"/>
</clipPath>
</defs>
</svg>
